<svg xmlns="http://www.w3.org/2000/svg">
  <defs>
    <!-- Clipboard icon -->
    <symbol id="clipboard" viewBox="0 0 24 24">
      <g fill="none" stroke="currentColor" stroke-linecap="round" stroke-linejoin="round" stroke-width="2">
        <path d="M9 5H7a2 2 0 0 0-2 2v12a2 2 0 0 0 2 2h10a2 2 0 0 0 2-2V7a2 2 0 0 0-2-2h-2"/>
        <path d="M9 5a2 2 0 0 1 2-2h2a2 2 0 0 1 2 2v0a2 2 0 0 1-2 2h-2a2 2 0 0 1-2-2z"/>
      </g>
    </symbol>

    <!-- Check/Success icon -->
    <symbol id="check" viewBox="0 0 24 24">
      <g fill="none" stroke="currentColor" stroke-linecap="round" stroke-linejoin="round" stroke-width="2">
        <path d="M9 5H7a2 2 0 0 0-2 2v12a2 2 0 0 0 2 2h10a2 2 0 0 0 2-2V7a2 2 0 0 0-2-2h-2"/>
        <path d="M9 5a2 2 0 0 1 2-2h2a2 2 0 0 1 2 2v0a2 2 0 0 1-2 2h-2a2 2 0 0 1-2-2z"/>
        <path d="m9 12l2 2l4-4"/>
      </g>
    </symbol>
  </defs>
</svg>